<svg xmlns="http://www.w3.org/2000/svg" xmlns:xlink="http://www.w3.org/1999/xlink" width="500" zoomAndPan="magnify" viewBox="0 0 375 374.999991" height="500" preserveAspectRatio="xMidYMid meet" version="1.0"><defs><g/></defs><path fill="currentColor" d="M 203.300781 256.773438 C 180.84375 256.773438 158.878906 248.574219 142.324219 231.992188 C 133.066406 222.761719 133.066406 207.820312 142.296875 198.589844 C 151.527344 189.359375 166.484375 189.359375 175.699219 198.574219 C 191.832031 214.679688 219.824219 212.9375 238.097656 194.636719 L 310.960938 121.773438 C 320.710938 112.0625 326.277344 99.375 326.277344 86.960938 C 326.277344 79.550781 324.300781 68.792969 314.941406 59.402344 C 304.898438 49.347656 293.371094 47.6875 285.320312 48.097656 C 273.445312 48.632812 261.800781 54.054688 252.542969 63.3125 L 210.742188 105.085938 C 200.972656 95.320312 160.84375 88.152344 149.972656 99.039062 L 219.097656 29.925781 C 236.6875 12.339844 259.375 2.035156 283.050781 0.902344 C 307.746094 -0.234375 330.914062 8.648438 348.269531 26.003906 C 364.535156 42.238281 373.488281 63.894531 373.488281 86.976562 C 373.472656 111.832031 362.847656 136.699219 344.300781 155.1875 L 271.453125 228.039062 C 252.414062 247.152344 227.585938 256.773438 203.300781 256.773438 Z M 203.300781 256.773438 " fill-opacity="1" fill-rule="nonzero"/><path fill="currentColor" d="M 170.246094 118.226562 C 192.675781 118.226562 214.652344 126.425781 231.234375 143.007812 C 240.480469 152.238281 240.464844 167.179688 231.234375 176.410156 C 222.019531 185.640625 207.0625 185.640625 197.835938 176.410156 C 181.714844 160.320312 153.722656 162.078125 135.4375 180.347656 L 62.574219 253.210938 C 52.835938 262.921875 47.253906 275.609375 47.253906 288.023438 C 47.253906 295.40625 49.230469 306.191406 58.605469 315.582031 C 68.648438 325.609375 80.175781 327.296875 88.226562 326.917969 C 100.101562 326.351562 111.746094 320.929688 121.003906 311.671875 L 162.761719 269.925781 C 172.527344 279.679688 212.660156 286.847656 223.546875 275.960938 L 154.417969 345.074219 C 136.847656 362.660156 114.140625 372.964844 90.480469 374.097656 C 65.769531 375.261719 42.601562 366.367188 25.234375 348.996094 C 8.96875 332.761719 0.0273438 311.105469 0.0273438 288.023438 C 0.0429688 263.167969 10.652344 238.300781 29.199219 219.8125 L 102.050781 146.960938 C 121.121094 127.878906 145.972656 118.226562 170.246094 118.226562 Z M 170.246094 118.226562 " fill-opacity="1" fill-rule="nonzero"/><g fill="#000000" fill-opacity="1"><g transform="translate(210.163366, 230.374994)"><g><path d="M 4.921875 0.21875 C 3.847656 0.21875 3.03125 -0.0664062 2.46875 -0.640625 C 1.914062 -1.210938 1.640625 -2.085938 1.640625 -3.265625 L 1.640625 -16.609375 L 4.609375 -16.609375 L 4.609375 -3.390625 C 4.609375 -2.660156 4.910156 -2.296875 5.515625 -2.296875 C 5.679688 -2.296875 5.863281 -2.328125 6.0625 -2.390625 L 6.203125 -2.34375 L 6.484375 -0.046875 C 6.316406 0.0351562 6.097656 0.0976562 5.828125 0.140625 C 5.554688 0.191406 5.253906 0.21875 4.921875 0.21875 Z M 4.921875 0.21875 "/></g></g></g><g fill="#000000" fill-opacity="1"><g transform="translate(216.972703, 230.374994)"><g><path d="M 3.1875 -13.265625 C 2.65625 -13.265625 2.21875 -13.425781 1.875 -13.75 C 1.539062 -14.082031 1.375 -14.503906 1.375 -15.015625 C 1.375 -15.523438 1.539062 -15.941406 1.875 -16.265625 C 2.21875 -16.597656 2.65625 -16.765625 3.1875 -16.765625 C 3.550781 -16.765625 3.867188 -16.6875 4.140625 -16.53125 C 4.421875 -16.382812 4.640625 -16.175781 4.796875 -15.90625 C 4.953125 -15.644531 5.03125 -15.347656 5.03125 -15.015625 C 5.03125 -14.679688 4.953125 -14.378906 4.796875 -14.109375 C 4.640625 -13.847656 4.421875 -13.640625 4.140625 -13.484375 C 3.867188 -13.335938 3.550781 -13.265625 3.1875 -13.265625 Z M 1.703125 0 L 1.703125 -11.84375 L 4.6875 -11.84375 L 4.6875 0 Z M 1.703125 0 "/></g></g></g><g fill="#000000" fill-opacity="1"><g transform="translate(223.352429, 230.374994)"><g><path d="M 1.703125 0 L 1.703125 -11.84375 L 4.5625 -11.84375 L 4.5625 -10.109375 L 4.796875 -10.0625 C 5.523438 -11.40625 6.71875 -12.078125 8.375 -12.078125 C 9.75 -12.078125 10.753906 -11.703125 11.390625 -10.953125 C 12.035156 -10.210938 12.359375 -9.128906 12.359375 -7.703125 L 12.359375 0 L 9.375 0 L 9.375 -7.34375 C 9.375 -8.125 9.21875 -8.6875 8.90625 -9.03125 C 8.59375 -9.382812 8.085938 -9.5625 7.390625 -9.5625 C 6.535156 -9.5625 5.867188 -9.285156 5.390625 -8.734375 C 4.921875 -8.179688 4.6875 -7.316406 4.6875 -6.140625 L 4.6875 0 Z M 1.703125 0 "/></g></g></g><g fill="#000000" fill-opacity="1"><g transform="translate(237.22887, 230.374994)"><g><path d="M 1.703125 0 L 1.703125 -16.609375 L 4.6875 -16.609375 L 4.6875 -7.390625 L 4.96875 -7.390625 L 8.40625 -11.84375 L 11.421875 -11.84375 L 11.421875 -11.609375 L 7.390625 -6.40625 L 11.875 -0.265625 L 11.875 0 L 8.734375 0 L 4.96875 -5 L 4.6875 -5 L 4.6875 0 Z M 1.703125 0 "/></g></g></g></svg>